{"accessors" : [{"bufferView" : 0, "byteOffset" : 0, "componentType" : 5123, "count" : 29997, "type" : "SCALAR", "max" : [29996], "min" : [0]}, {"bufferView" : 1, "byteOffset" : 0, "componentType" : 5126, "count" : 29997, "type" : "VEC3", "max" : [81.4836654663086, 158.29403686523438, 174.50042724609375], "min" : [-46.93309783935547, -148.83346557617188, -1.1720426082611084], "name" : "POSITION"}, {"bufferView" : 1, "byteOffset" : 12, "componentType" : 5126, "count" : 29997, "type" : "VEC3", "max" : [0.9994657039642334, 0.9991475939750671, 0.9998225569725037], "min" : [-0.999828577041626, -0.9998860955238342, -0.9999834299087524], "name" : "NORMAL"}, {"bufferView" : 1, "byteOffset" : 24, "componentType" : 5126, "count" : 29997, "type" : "VEC2", "max" : [0.9896331429481506, -0.0018352866172790527], "min" : [0.007132524158805609, -0.9928362965583801], "name" : "TEXCOORD_0"}], "asset" : {"generator" : "Aspose.3D 23.4.0", "version" : "2.0"}, "buffers" : [{"uri" : "data:application/octet-stream;base64,", "byteLength" : 1019908}], "bufferViews" : [{"buffer" : 0, "byteOffset" : 0, "byteLength" : 59996, "target" : 34963}, {"buffer" : 0, "byteOffset" : 60000, "byteLength" : 959904, "byteStride" : 32, "target" : 34962}], "images" : [{"uri" : "E:\\ARTZOOM\\DIGITAL MODELS\\9_digital_models\\12_Dog\\Gun dog\\diffuse.jpg"}], "materials" : [{"name" : "gun dog opti", "pbrMetallicRoughness" : {"baseColorFactor" : [0.800000011920929, 0.800000011920929, 0.800000011920929, 1], "baseColorTexture" : {"index" : 0, "texCoord" : 0}, "metallicFactor" : 0, "roughnessFactor" : 0}, "emissiveFactor" : [0, 0, 0], "alphaMode" : "OPAQUE", "doubleSided" : false}], "meshes" : [{"primitives" : [{"attributes" : {"POSITION" : 1, "NORMAL" : 2, "TEXCOORD_0" : 3}, "indices" : 0, "material" : 0, "mode" : 4}], "name" : ""}], "nodes" : [{"matrix" : [-3.509246304537159, 5.733819016548052E-16, -9.364037076714952, 0, -9.364027934719747, -0.009994501329045934, 3.509242878502787, 0, -0.009358888100846098, 9.99999023712195, 0.0035073166854651537, 0, 105.72883764181738, -866.5937228032246, 144.86283873783637, 1], "mesh" : 0, "name" : "lowPoly"}], "samplers" : [{"magFilter" : 9729, "minFilter" : 9729, "wrapS" : 10497, "wrapT" : 10497}], "scene" : 0, "scenes" : [{"nodes" : [0]}], "textures" : [{"sampler" : 0, "source" : 0, "name" : "Map #2"}]}